<svg xmlns="http://www.w3.org/2000/svg" viewBox="0 0 240 240" fill="none">
  <circle cx="120" cy="120" r="96" fill="#F1F5F9"/>
  <path d="M92 94l22-18h12l22 18-12 18v52a6 6 0 0 1-6 6h-40a6 6 0 0 1-6-6v-52L92 94z" fill="#FFFFFF" stroke="#94A3B8" stroke-width="3" stroke-linejoin="round"/>
  <path d="M114 76c2 10 10 16 6 16h-0c-4 0 4-6 6-16" stroke="#CBD5E1" stroke-width="3" stroke-linecap="round"/>
  <path d="M92 94l18 10" stroke="#94A3B8" stroke-width="3" stroke-linecap="round"/>
  <path d="M148 94l-18 10" stroke="#94A3B8" stroke-width="3" stroke-linecap="round"/>
  <path d="M86 178c18 14 38 22 34 22h0c-4 0 16-8 34-22" stroke="#E2E8F0" stroke-width="10" stroke-linecap="round"/>
</svg>
