<svg xmlns="http://www.w3.org/2000/svg" viewBox="0 0 240 240" fill="none">
  <circle cx="120" cy="120" r="96" fill="#F1F5F9"/>
  <path d="M84 82h72a10 10 0 0 1 10 10v70a10 10 0 0 1-10 10H84a10 10 0 0 1-10-10V92a10 10 0 0 1 10-10z" fill="#FFFFFF" stroke="#94A3B8" stroke-width="3"/>
  <path d="M94 98h52" stroke="#CBD5E1" stroke-width="3" stroke-linecap="round"/>
  <path d="M94 112h40" stroke="#CBD5E1" stroke-width="3" stroke-linecap="round"/>
  <rect x="94" y="128" width="12" height="28" rx="3" fill="#E2E8F0"/>
  <rect x="112" y="138" width="12" height="18" rx="3" fill="#E2E8F0"/>
  <rect x="130" y="120" width="12" height="36" rx="3" fill="#E2E8F0"/>
  <path d="M60 186c18 14 40 22 60 22s42-8 60-22" stroke="#E2E8F0" stroke-width="10" stroke-linecap="round"/>
</svg>
